#!OML:ASF E:\emotionWalksFemale\Project 1\Capture day 1\Session 1\Female1.ASF
:FULLY-SPECIFIED
:DEGREES
1815
root 9.4608 15.4825 -25.4917 183.577 -5.86313 -178.088
lowerback 8.95053 0.889479 1.1791
upperback 2.38733 1.12676 2.63615
thorax -2.57082 0.452629 1.9444
lowerneck -3.52446 4.45594 5.53435
upperneck -6.17171 5.48271 -0.312063
head -1.16012 2.47292 -1.00054
rclavicle 1.53064e-014 -3.97569e-015
rhumerus -29.3247 -7.91121 -78.8364
rradius 34.9608
rwrist 18.0816
rhand -6.83735 -57.721
rfingers 7.12502
rthumb 19.0272 -806.81
lclavicle 1.53064e-014 -3.97569e-015
lhumerus -31.6871 12.7559 84.1846
lradius 41.4241
lwrist -7.78826
lhand 5.41118 -32.5993
lfingers 7.12502
lthumb 30.7621 -5.15276
rfemur -5.911 9.6999 32.5149
rtibia 21.3365
rfoot -16.161 -26.6652
rtoes 7.98576
lfemur -32.8814 -1.05683 -20.274
ltibia 48.5392
lfoot -18.116 9.72311
ltoes -7.76593
1816
root 9.45834 15.4807 -25.5434 183.548 -5.67693 -178.073
lowerback 9.02989 0.927906 1.18839
upperback 2.30942 1.18727 2.65571
thorax -2.69726 0.484136 1.9517
lowerneck -2.51126 4.73369 5.27076
upperneck -6.99927 5.93456 -0.141943
head -1.59334 2.6757 -0.946238
rclavicle -2.17669e-014 5.56597e-015
rhumerus -29.5737 -7.76828 -78.89
rradius 35.0594
rwrist 17.6359
rhand -6.6041 -57.7276
rfingers 7.12502
rthumb 19.2516 -806.795
lclavicle -2.17669e-014 5.56597e-015
lhumerus -32.0124 12.6031 83.9384
lradius 41.0037
lwrist -7.52054
lhand 5.59192 -33.0104
lfingers 7.12502
lthumb 30.9344 -5.59647
rfemur -5.41291 9.77285 32.5998
rtibia 20.9504
rfoot -16.2284 -26.6142
rtoes 8.1286
lfemur -32.8194 -1.0263 -20.427
ltibia 47.1071
lfoot -17.8329 9.93518
ltoes -7.56328
1817
root 9.4534 15.4806 -25.5959 183.5 -5.40279 -177.885
lowerback 8.78976 0.974768 1.40863
upperback 2.4301 1.24927 2.69292
thorax -2.43657 0.509883 1.8626
lowerneck -2.25196 4.83879 5.05082
upperneck -7.23004 6.10145 0.0647219
head -1.71979 2.75139 -0.85773
rclavicle 3.97569e-016 -6.36111e-015
rhumerus -29.5582 -7.70306 -79.0379
rradius 35.1804
rwrist 17.3263
rhand -6.30444 -57.8764
rfingers 7.12502
rthumb 19.5397 -806.915
lclavicle 3.97569e-016 -6.36111e-015
lhumerus -31.975 12.8711 83.6658
lradius 40.4325
lwrist -7.64582
lhand 5.76337 -33.2939
lfingers 7.12502
lthumb 31.0978 -5.91111
rfemur -4.94681 9.82172 32.8391
rtibia 20.5681
rfoot -16.0783 -26.513
rtoes 7.98932
lfemur -32.7438 -0.949701 -20.3818
ltibia 45.6665
lfoot -18.2584 10.4573
ltoes -10.8933
1818
root 9.45055 15.4787 -25.6431 183.516 -5.18708 -177.73
lowerback 8.62305 1.00748 1.55829
upperback 2.47903 1.29504 2.7163
thorax -2.29158 0.530625 1.79998
lowerneck -1.99676 4.94109 4.54508
upperneck -7.52053 6.27895 0.708373
head -1.88862 2.82372 -0.58806
rclavicle -5.96354e-016 -1.59028e-014
rhumerus -29.5612 -7.70011 -79.1596
rradius 35.2567
rwrist 17.309
rhand -6.28796 -57.6133
rfingers 7.12502
rthumb 19.5555 -806.65
lclavicle -5.96354e-016 -1.59028e-014
lhumerus -32.1569 13.3322 83.3139
lradius 40.2243
lwrist -8.06358
lhand 6.17398 -33.4207
lfingers 7.12502
lthumb 31.4891 -6.11359
rfemur -4.56116 9.86718 33.0355
rtibia 20.1027
rfoot -15.7983 -26.4384
rtoes 7.77616
lfemur -32.7745 -0.919543 -20.3549
ltibia 44.2179
lfoot -18.7292 10.3241
ltoes -2.98075
1819
root 9.44791 15.4785 -25.6892 183.559 -5.12882 -177.73
lowerback 8.53122 0.977272 1.53238
upperback 2.47931 1.25123 2.71319
thorax -2.24011 0.509756 1.81689
lowerneck -0.939103 4.91039 4.70053
upperneck -8.59845 6.29358 0.548037
head -2.41937 2.7882 -0.717172
rclavicle 7.95139e-016 2.70347e-014
rhumerus -29.6433 -7.68924 -79.2641
rradius 35.3925
rwrist 17.4735
rhand -6.46537 -57.23
rfingers 7.12502
rthumb 19.3849 -806.284
lclavicle 7.95139e-016 2.70347e-014
lhumerus -32.4361 13.5058 82.9992
lradius 40.1794
lwrist -8.02465
lhand 6.5927 -33.4496
lfingers 7.12502
lthumb 31.8879 -6.22128
rfemur -4.1847 9.7701 33.0653
rtibia 19.625
rfoot -15.5142 -26.3443
rtoes 7.19316
lfemur -32.7654 -1.04023 -20.4846
ltibia 42.7427
lfoot -19.2946 10.1906
ltoes 3.44383
1820
root 9.44483 15.4827 -25.7382 183.551 -5.09878 -177.717
lowerback 8.49559 0.898604 1.45799
upperback 2.4484 1.14266 2.74612
thorax -2.25235 0.456548 1.90427
lowerneck -0.982709 4.93437 4.79394
upperneck -8.37528 6.32573 0.475176
head -2.33166 2.81428 -0.750321
rclavicle 1.67973e-014 5.56597e-015
rhumerus -29.743 -7.53731 -79.3987
rradius 35.3924
rwrist 17.5458
rhand -6.51656 -57.158
rfingers 7.12502
rthumb 19.3357 -806.217
lclavicle 1.67973e-014 5.56597e-015
lhumerus -32.6952 13.7457 82.6769
lradius 39.93
lwrist -7.89689
lhand 6.85126 -33.5139
lfingers 7.12502
lthumb 32.1341 -6.33495
rfemur -3.7969 9.71638 33.1195
rtibia 19.2812
rfoot -15.3992 -26.284
rtoes 6.84194
lfemur -32.6343 -1.1895 -20.5898
ltibia 41.2401
lfoot -19.7532 10.1948
ltoes 5.72017
1821
root 9.44127 15.488 -25.7829 183.558 -5.04724 -177.797
lowerback 8.45963 0.857028 1.31562
upperback 2.42596 1.07834 2.75846
thorax -2.25732 0.426182 2.00399
lowerneck -0.698085 4.87046 4.67053
upperneck -8.48864 6.26815 0.55807
head -2.42792 2.78491 -0.714369
rclavicle 1.11319e-014 2.14687e-014
rhumerus -29.7322 -7.33381 -79.5214
rradius 35.2009
rwrist 17.3002
rhand -6.51733 -57.3716
rfingers 7.12502
rthumb 19.335 -806.43
lclavicle 1.11319e-014 2.14687e-014
lhumerus -32.9526 13.8758 82.4642
lradius 39.7515
lwrist -8.00816
lhand 6.98206 -33.3082
lfingers 7.12502
lthumb 32.2586 -6.15444
rfemur -3.44253 9.78096 33.0702
rtibia 18.944
rfoot -15.4074 -26.2664
rtoes 7.31382
lfemur -32.536 -1.40331 -20.7582
ltibia 39.7657
lfoot -19.8816 10.711
ltoes 3.87346
1822
root 9.43713 15.4853 -25.8219 183.638 -4.94091 -177.902
lowerback 8.4432 0.87251 1.18545
upperback 2.41714 1.09014 2.75792
thorax -2.26033 0.433396 2.07555
lowerneck -0.623493 4.75746 4.34932
upperneck -8.60476 6.12924 0.762705
head -2.49891 2.7154 -0.599148
rclavicle 1.19271e-015 -1.66979e-014
rhumerus -29.6673 -7.16523 -79.5966
rradius 35.0551
rwrist 17.1145
rhand -6.42111 -57.4214
rfingers 7.12502
rthumb 19.4275 -806.471
lclavicle 1.19271e-015 -1.66979e-014
lhumerus -33.1642 13.9455 82.2943
lradius 39.6353
lwrist -8.26129
lhand 7.25775 -32.7493
lfingers 7.12502
lthumb 32.521 -5.64922
rfemur -3.09811 9.86673 32.9703
rtibia 18.3903
rfoot -15.2126 -26.2139
rtoes 7.50489
lfemur -32.5592 -1.63486 -20.94
ltibia 38.4316
lfoot -19.917 11.562
ltoes -0.325826
1823
root 9.43246 15.4784 -25.8698 183.583 -4.71402 -177.531
lowerback 8.35784 0.916479 1.50185
upperback 2.50997 1.15551 2.88289
thorax -2.1144 0.457915 2.02179
lowerneck -0.844121 4.63683 4.04269
upperneck -8.50353 5.95942 0.951621
head -2.44329 2.63829 -0.478106
rclavicle -1.23246e-014 -3.33958e-014
rhumerus -29.6546 -7.06556 -79.661
rradius 35.1059
rwrist 17.1894
rhand -6.41902 -57.254
rfingers 7.12502
rthumb 19.4295 -806.303
lclavicle -1.23246e-014 -3.33958e-014
lhumerus -33.2806 14.0331 82.1034
lradius 39.4977
lwrist -8.30416
lhand 7.44026 -32.4707
lfingers 7.12502
lthumb 32.6947 -5.40659
rfemur -2.56146 10.0087 33.4031
rtibia 17.7136
rfoot -14.8663 -26.1566
rtoes 7.25852
lfemur -32.451 -1.72998 -20.6012
ltibia 37.2528
lfoot -20.1646 12.3829
ltoes -2.86715
1824
root 9.42777 15.4757 -25.924 183.373 -4.47544 -176.839
lowerback 8.55736 0.929175 2.10626
upperback 2.42166 1.22193 3.07564
thorax -2.30781 0.481715 1.8731
lowerneck -0.754856 4.52082 4.03688
upperneck -8.2604 5.82407 0.997459
head -2.38224 2.58352 -0.4595
rclavicle -1.15295e-014 7.95139e-016
rhumerus -30.1182 -7.08028 -79.6843
rradius 35.2954
rwrist 17.4311
rhand -6.47554 -57.1092
rfingers 7.12502
rthumb 19.3752 -806.164
lclavicle -1.15295e-014 7.95139e-016
lhumerus -33.832 14.0853 81.7802
lradius 39.4283
lwrist -8.27625
lhand 7.3596 -32.7391
lfingers 7.12502
lthumb 32.6179 -5.65908
rfemur -1.84296 10.1714 34.2102
rtibia 17.0211
rfoot -14.591 -26.1802
rtoes 6.84338
lfemur -32.2176 -1.89456 -19.8451
ltibia 36.2043
lfoot -20.6795 12.9989
ltoes -2.23251
1825
root 9.42154 15.4746 -25.9708 183.241 -4.32111 -176.512
lowerback 8.61573 0.930907 2.45319
upperback 2.44413 1.24546 3.12319
thorax -2.30985 0.487607 1.7248
lowerneck -0.87694 4.41584 4.03705
upperneck -8.06704 5.68195 1.06271
head -2.30048 2.51898 -0.430601
rclavicle 1.90833e-014 1.11319e-014
rhumerus -30.2724 -7.28083 -79.7329
rradius 35.2801
rwrist 17.7415
rhand -6.34856 -56.982
rfingers 7.12502
rthumb 19.4973 -806.024
lclavicle 1.90833e-014 1.11319e-014
lhumerus -34.0771 14.4259 81.4331
lradius 39.1633
lwrist -8.63979
lhand 7.17291 -33.2854
lfingers 7.12502
lthumb 32.4403 -6.16875
rfemur -1.16163 10.2225 34.6012
rtibia 16.2351
rfoot -14.2519 -26.2576
rtoes 5.6233
lfemur -32.0913 -2.32505 -19.4252
ltibia 35.2373
lfoot -21.0917 13.7495
ltoes -1.55048
